<svg id="Layer_1" data-name="Layer 1" xmlns="http://www.w3.org/2000/svg" viewBox="0 0 125.61 59.28"><defs><style>.cls-1{fill:#c5492f;}</style></defs><title>Type-color</title><path class="cls-1" d="M44.91,47.1v-13c0-5-2.32-7.42-6.55-7.42A6.27,6.27,0,0,0,32,32.83a6.13,6.13,0,0,0,6.15,6.5,12.4,12.4,0,0,0,4.46-.82v7.66a10.38,10.38,0,0,1-6.32,1.62c-5.92,0-13.57-5-13.57-14.73,0-8.47,6.49-14.85,15.48-14.85,8.76,0,16,4.76,16,13.69V47.1Z"/><path class="cls-1" d="M56.3,59.28V31.9c0-9,7.77-13.69,16-13.69,9,0,15.48,6.38,15.48,14.85,0,9.69-7.65,14.73-15,14.73a12.53,12.53,0,0,1-4.52-.69V38.51a7.46,7.46,0,0,0,3.88.82,6.33,6.33,0,1,0,0-12.65c-4.4,0-6.55,3.13-6.55,7.48V59.28Z"/><path class="cls-1" d="M114.76,27.78c0-.75.82-1.33,1.92-1.33h7.25V18.91h-9.05c-4.41,0-9,2.66-9,8,0,9.34,10.27,8.35,10.27,11,0,.76-.52,1.28-1.63,1.28h-8.64V47.1h10.09c6.1,0,9.69-3.13,9.69-8.88C125.61,30.62,114.76,30,114.76,27.78Z"/><path class="cls-1" d="M104.14,39.21h-3.31a2.56,2.56,0,0,1-2.14-1.15,3.52,3.52,0,0,1-.42-1.37V18.91h-9l0,18.09c0,5.34,3.37,10.1,10.45,10.1h4.42Z"/><path class="cls-1" d="M21,38.33H15.56a2.56,2.56,0,0,1-2.13-1.15A3.63,3.63,0,0,1,13,35.81V15.2h9.7V6.73H13.06V0h-9V6.73H0V15.2H4L4,37c0,5.34,3.36,10.1,10.44,10.1H26.84A18.38,18.38,0,0,1,21,38.33Z"/><rect class="cls-1" x="89.27" y="7.1" width="8.99" height="8.99"/></svg>