<?xml version="1.0" encoding="UTF-8" standalone="no"?>
<!DOCTYPE svg PUBLIC "-//W3C//DTD SVG 1.1//EN" "http://www.w3.org/Graphics/SVG/1.1/DTD/svg11.dtd">
<svg id="bluesky-icon" viewBox="0 0 36 36" version="1.1" xmlns="http://www.w3.org/2000/svg" xmlns:xlink="http://www.w3.org/1999/xlink" xml:space="preserve" xmlns:serif="http://www.serif.com/" role="img">
    <title>Bluesky</title>
    <g transform="matrix(0.06,0,0,0.06,0,0.0513836)">
        <path d="M600,96.21C600,4.465 519.58,33.297 469.946,70.56C401.155,122.201 327.169,226.915 300.002,283.104C272.836,226.911 198.846,122.202 130.058,70.56L130.054,70.56C80.422,33.297 0,4.465 0,96.21C0,114.531 10.505,250.128 16.666,272.144C38.08,348.678 116.123,368.199 185.545,356.384C64.199,377.032 33.331,445.444 99.997,513.852C226.613,643.776 281.978,481.255 296.164,439.612C298.765,431.978 299.982,428.406 300,431.443C300.018,428.406 301.235,431.978 303.836,439.612C318.029,481.255 373.394,643.772 500.003,513.852C566.668,445.444 535.799,377.036 414.455,356.384C483.875,368.199 561.917,348.678 583.334,272.144C589.495,250.13 600,114.533 600,96.21Z"/>
    </g>
</svg>
