<svg id="email-icon" viewBox="0 0 43 43" xmlns="http://www.w3.org/2000/svg" fill="currentColor">
    <title>Email</title>
    <path d="M6.1 0C2.73547 0 0 2.73547 0 6.1V36.6C0 39.9645 2.73547 42.7 6.1 42.7H36.6C39.9645 42.7 42.7 39.9645 42.7 36.6V6.1C42.7 2.73547 39.9645 0 36.6 0H6.1ZM19.9298 22.4842L10.3319 16.7178C9.59797 16.2794 9.15 15.4883 9.15 14.6305C9.15 13.2866 10.2366 12.2 11.5805 12.2H31.11C32.4539 12.2 33.5405 13.2866 33.5405 14.6305C33.5405 15.4883 33.0925 16.2794 32.3586 16.7178L22.7702 22.4842C22.3412 22.7416 21.8552 22.875 21.35 22.875C20.8448 22.875 20.3587 22.7416 19.9298 22.4842ZM33.55 19.5677V27.45C33.55 29.137 32.187 30.5 30.5 30.5H12.2C10.513 30.5 9.15 29.137 9.15 27.45V19.5677L18.3667 25.0958C19.2627 25.6391 20.3016 25.925 21.35 25.925C22.3984 25.925 23.4373 25.6391 24.3333 25.0958L33.55 19.5677Z" />
</svg>
