<?xml version="1.0" encoding="UTF-8" standalone="no"?>
<!DOCTYPE svg PUBLIC "-//W3C//DTD SVG 1.1//EN" "http://www.w3.org/Graphics/SVG/1.1/DTD/svg11.dtd">
<svg id="email-icon" viewBox="0 0 256 256" version="1.1" xmlns="http://www.w3.org/2000/svg" xmlns:xlink="http://www.w3.org/1999/xlink" xml:space="preserve">
    <g transform="matrix(2.84126,0,0,2.84126,-1.24345e-14,-1.24345e-14)">
        <path d="M46.003,52.103C45.718,52.36 45.359,52.488 45,52.488C44.641,52.488 44.282,52.36 43.997,52.103L38.842,47.466L23.741,60.208L66.258,60.208L51.158,47.465L46.003,52.103Z" style="fill-rule:nonzero;"/>
        <path d="M66.32,29.79L23.68,29.79L45,48.97L66.32,29.79Z" style="fill-rule:nonzero;"/>
        <path d="M21.07,31.48L21.07,58.53L36.59,45.44L21.07,31.48Z" style="fill-rule:nonzero;"/>
        <path d="M68.93,58.53L68.93,31.48L53.41,45.44L68.93,58.53Z" style="fill-rule:nonzero;"/>
        <path d="M45,0C20.147,0 0,20.147 0,45C0,69.853 20.147,90 45,90C69.853,90 90,69.853 90,45C90,20.147 69.853,0 45,0ZM71.927,58.911C71.927,61.28 69.999,63.208 67.63,63.208L22.37,63.208C20.001,63.208 18.074,61.28 18.074,58.911L18.074,31.088C18.074,28.719 20.001,26.792 22.37,26.792L67.63,26.792C69.999,26.792 71.927,28.719 71.927,31.088L71.927,58.911Z" style="fill-rule:nonzero;"/>
    </g>
</svg>
