<?xml version="1.0" encoding="UTF-8" standalone="no"?>
<!DOCTYPE svg PUBLIC "-//W3C//DTD SVG 1.1//EN" "http://www.w3.org/Graphics/SVG/1.1/DTD/svg11.dtd">
<svg id="facebook-icon" viewBox="0 0 36 36" version="1.1" xmlns="http://www.w3.org/2000/svg" xmlns:xlink="http://www.w3.org/1999/xlink" xml:space="preserve">
    <path id="path1" d="M18,0C8.059,0 0,8.059 0,18C0,26.441 5.81,33.525 13.65,35.471L13.65,23.502L9.936,23.502L9.936,18L13.65,18L13.65,15.631C13.65,9.504 16.424,6.666 22.436,6.666C23.574,6.666 25.539,6.888 26.346,7.111L26.346,12.096C25.921,12.053 25.178,12.029 24.264,12.029C21.312,12.029 20.174,13.146 20.174,16.055L20.174,18L26.057,18L25.049,23.5L20.182,23.5L20.182,35.869C29.095,34.79 36,27.202 36,18C36,8.059 27.941,0 18,0Z" />
</svg>
