<?xml version="1.0" encoding="UTF-8" standalone="no"?>
<!DOCTYPE svg PUBLIC "-//W3C//DTD SVG 1.1//EN" "http://www.w3.org/Graphics/SVG/1.1/DTD/svg11.dtd">
<svg width="100%" height="100%" viewBox="0 0 256 256" version="1.1" xmlns="http://www.w3.org/2000/svg" xmlns:xlink="http://www.w3.org/1999/xlink" xml:space="preserve">
    <g transform="matrix(1.28,0,0,1.28,-35.84,-35.84)">
        <path d="M160,128C160,145.555 145.555,160 128,160C110.445,160 96,145.555 96,128C96,110.445 110.445,96 128,96C145.547,96.02 159.98,110.453 160,128ZM228,84L228,172C227.965,202.708 202.708,227.965 172,228L84,228C53.292,227.965 28.035,202.708 28,172L28,84C28.035,53.292 53.292,28.035 84,28L172,28C202.708,28.035 227.965,53.292 228,84ZM176,128C176,101.668 154.332,80 128,80C101.668,80 80,101.668 80,128C80,154.332 101.668,176 128,176C154.321,175.97 175.97,154.321 176,128ZM192,76C192,69.417 186.583,64 180,64C173.417,64 168,69.417 168,76C168,82.583 173.417,88 180,88C186.583,88 192,82.583 192,76Z" />
    </g>
</svg>
