<?xml version="1.0" encoding="UTF-8" standalone="no"?>
<!DOCTYPE svg PUBLIC "-//W3C//DTD SVG 1.1//EN" "http://www.w3.org/Graphics/SVG/1.1/DTD/svg11.dtd">
<svg id="twitter-icon" viewBox="0 0 24 24" version="1.1" xmlns="http://www.w3.org/2000/svg" xmlns:xlink="http://www.w3.org/1999/xlink" xml:space="preserve">
    <g transform="matrix(1.2,0,0,1.2,-2.4,-2.398)">
        <path d="M22,5.8C21.248,6.126 20.453,6.342 19.64,6.44C20.498,5.927 21.141,5.121 21.45,4.17C20.644,4.65 19.761,4.988 18.84,5.17C18.064,4.329 16.97,3.849 15.826,3.849C13.577,3.849 11.726,5.7 11.726,7.949C11.726,8.273 11.764,8.595 11.84,8.91C8.544,8.743 5.47,7.182 3.39,4.62C3.029,5.25 2.84,5.964 2.84,6.69C2.837,8.058 3.522,9.341 4.66,10.1C4.008,10.082 3.37,9.907 2.8,9.59L2.8,9.64C2.81,11.581 4.197,13.261 6.1,13.64C5.743,13.749 5.373,13.806 5,13.81C4.742,13.807 4.484,13.784 4.23,13.74C4.77,15.402 6.313,16.546 8.06,16.58C6.617,17.715 4.836,18.335 3,18.34C2.666,18.341 2.332,18.321 2,18.28C3.874,19.49 6.059,20.133 8.29,20.13C8.33,20.13 8.37,20.131 8.41,20.131C14.768,20.131 20,14.899 20,8.541C20,8.51 20,8.48 20,8.45L20,7.92C20.785,7.335 21.461,6.617 22,5.8Z" />
    </g>
</svg>
