<?xml version="1.0" encoding="UTF-8" standalone="no"?>
<!DOCTYPE svg PUBLIC "-//W3C//DTD SVG 1.1//EN" "http://www.w3.org/Graphics/SVG/1.1/DTD/svg11.dtd">
<svg id="youtube-icon" viewBox="0 0 24 24" version="1.1" xmlns="http://www.w3.org/2000/svg" xmlns:xlink="http://www.w3.org/1999/xlink" xml:space="preserve">
    <g transform="matrix(1.09005,0,0,1.09005,-1.08044,-1.07995)">
        <path d="M23,9.71C23.049,8.279 22.736,6.858 22.09,5.58C21.652,5.056 21.043,4.702 20.37,4.58C17.588,4.328 14.794,4.224 12,4.27C9.217,4.222 6.433,4.322 3.66,4.57C3.112,4.67 2.604,4.927 2.2,5.31C1.3,6.14 1.2,7.56 1.1,8.76C0.955,10.918 0.955,13.082 1.1,15.24C1.129,15.915 1.229,16.586 1.4,17.24C1.521,17.745 1.765,18.212 2.11,18.6C2.517,19.003 3.036,19.275 3.6,19.38C5.756,19.646 7.928,19.756 10.1,19.71C13.6,19.76 16.67,19.71 20.3,19.43C20.877,19.332 21.411,19.059 21.83,18.65C22.11,18.37 22.319,18.027 22.44,17.65C22.798,16.553 22.973,15.404 22.96,14.25C23,13.69 23,10.31 23,9.71ZM9.74,14.85L9.74,8.66L15.66,11.77C14,12.69 11.81,13.73 9.74,14.85Z" />
    </g>
</svg>
